# Blender v2.81 (sub 16) OBJ File: 'block.blend'
# www.blender.org
mtllib block.mtl
o Cube
v -1.000000 1.000000 1.000000
v -1.000000 0.750000 1.000000
v -0.750000 1.000000 1.000000
v -1.000000 1.000000 0.750000
v -1.000000 0.750000 0.750000
v -0.750000 0.750000 1.000000
v -0.750000 1.000000 0.750000
v -0.753333 0.753333 0.753333
v 1.000000 1.000000 1.000000
v 0.000000 1.000000 1.000000
v 1.000000 0.750000 1.000000
v 0.750000 1.000000 1.000000
v 0.000000 1.000000 0.750000
v 1.000000 1.000000 0.750000
v 0.000000 0.750000 1.000000
v 1.000000 0.750000 0.750000
v 0.750000 0.750000 1.000000
v 0.750000 1.000000 0.750000
v 0.753333 0.753333 0.753333
v 0.000000 0.755000 0.755000
v -1.000000 1.000000 -1.000000
v -1.000000 1.000000 0.000000
v -1.000000 0.750000 -1.000000
v -0.750000 1.000000 -1.000000
v -1.000000 1.000000 -0.750000
v -1.000000 0.750000 0.000000
v -0.750000 1.000000 0.000000
v -1.000000 0.750000 -0.750000
v -0.750000 0.750000 -1.000000
v -0.750000 1.000000 -0.750000
v -0.755000 0.755000 0.000000
v -0.753333 0.753333 -0.753333
v 1.000000 1.000000 -1.000000
v 0.000000 1.000000 -1.000000
v 1.000000 1.000000 0.000000
v 1.000000 0.750000 -1.000000
v 0.750000 1.000000 -1.000000
v 0.000000 1.000000 -0.750000
v 1.000000 1.000000 -0.750000
v 1.000000 0.750000 0.000000
v 0.000000 0.750000 -1.000000
v 0.750000 1.000000 0.000000
v 1.000000 0.750000 -0.750000
v 0.750000 0.750000 -1.000000
v 0.750000 1.000000 -0.750000
v 0.755000 0.755000 0.000000
v 0.753333 0.753333 -0.753333
v 0.000000 0.755000 -0.755000
v -1.000000 -1.000000 1.000000
v -1.000000 0.000000 1.000000
v -1.000000 -0.750000 1.000000
v -0.750000 -1.000000 1.000000
v -0.750000 0.000000 1.000000
v -1.000000 -1.000000 0.750000
v -1.000000 0.000000 0.750000
v -1.000000 -0.750000 0.750000
v -0.750000 -0.750000 1.000000
v -0.750000 -1.000000 0.750000
v -0.755000 0.000000 0.755000
v -0.753333 -0.753333 0.753333
v 1.000000 -1.000000 1.000000
v 1.000000 0.000000 1.000000
v 0.000000 -1.000000 1.000000
v 1.000000 -0.750000 1.000000
v 0.750000 -1.000000 1.000000
v 0.750000 0.000000 1.000000
v 0.000000 -1.000000 0.750000
v 1.000000 -1.000000 0.750000
v 1.000000 0.000000 0.750000
v 0.000000 -0.750000 1.000000
v 1.000000 -0.750000 0.750000
v 0.750000 -0.750000 1.000000
v 0.750000 -1.000000 0.750000
v 0.755000 0.000000 0.755000
v 0.753333 -0.753333 0.753333
v 0.000000 -0.755000 0.755000
v -1.000000 -1.000000 -1.000000
v -1.000000 0.000000 -1.000000
v -1.000000 -1.000000 0.000000
v -1.000000 -0.750000 -1.000000
v -0.750000 -1.000000 -1.000000
v -0.750000 0.000000 -1.000000
v -1.000000 -1.000000 -0.750000
v -1.000000 0.000000 -0.750000
v -1.000000 -0.750000 0.000000
v -0.750000 -1.000000 0.000000
v -1.000000 -0.750000 -0.750000
v -0.750000 -0.750000 -1.000000
v -0.750000 -1.000000 -0.750000
v -0.755000 0.000000 -0.755000
v -0.755000 -0.755000 0.000000
v -0.753333 -0.753333 -0.753333
v 1.000000 -1.000000 -1.000000
v 1.000000 0.000000 -1.000000
v 0.000000 -1.000000 -1.000000
v 1.000000 -1.000000 0.000000
v 1.000000 -0.750000 -1.000000
v 0.750000 -1.000000 -1.000000
v 0.750000 0.000000 -1.000000
v 0.000000 -1.000000 -0.750000
v 1.000000 -1.000000 -0.750000
v 1.000000 0.000000 -0.750000
v 1.000000 -0.750000 0.000000
v 0.000000 -0.750000 -1.000000
v 0.750000 -1.000000 0.000000
v 1.000000 -0.750000 -0.750000
v 0.750000 -0.750000 -1.000000
v 0.750000 -1.000000 -0.750000
v 0.755000 0.000000 -0.755000
v 0.755000 -0.755000 0.000000
v 0.753333 -0.753333 -0.753333
v 0.000000 -0.755000 -0.755000
vt 0.593750 0.218750
vt 0.625000 0.218750
vt 0.625000 0.250000
vt 0.593750 0.250000
vt 0.593750 0.468750
vt 0.625000 0.468750
vt 0.625000 0.500000
vt 0.593750 0.500000
vt 0.593750 0.531250
vt 0.593750 0.531250
vt 0.000000 0.000000
vt 0.000000 0.000000
vt 0.000000 0.000000
vt 0.000000 0.000000
vt 0.000000 0.000000
vt 0.000000 0.000000
vt 0.593750 0.218750
vt 0.625000 0.531250
vt 0.000000 0.000000
vt 0.000000 0.000000
vt 0.000000 0.000000
vt 0.000000 0.000000
vt 0.000000 0.000000
vt 0.000000 0.000000
vt 0.593750 0.218750
vt 0.593750 0.250000
vt 0.625000 0.250000
vt 0.625000 0.218750
vt 0.593750 0.468750
vt 0.593750 0.500000
vt 0.625000 0.500000
vt 0.625000 0.468750
vt 0.593750 0.531250
vt 0.000000 0.000000
vt 0.000000 0.000000
vt 0.593750 0.531250
vt 0.000000 0.000000
vt 0.000000 0.000000
vt 0.593750 0.218750
vt 0.625000 0.531250
vt 0.000000 0.000000
vt 0.000000 0.000000
vt 0.000000 0.000000
vt 0.000000 0.000000
vt 0.593750 0.218750
vt 0.593750 0.250000
vt 0.625000 0.250000
vt 0.625000 0.218750
vt 0.593750 0.468750
vt 0.593750 0.500000
vt 0.625000 0.500000
vt 0.625000 0.468750
vt 0.593750 0.531250
vt 0.000000 0.000000
vt 0.000000 0.000000
vt 0.593750 0.531250
vt 0.000000 0.000000
vt 0.000000 0.000000
vt 0.000000 0.000000
vt 0.000000 0.000000
vt 0.593750 0.218750
vt 0.625000 0.531250
vt 0.000000 0.000000
vt 0.000000 0.000000
vt 0.593750 0.218750
vt 0.625000 0.218750
vt 0.625000 0.250000
vt 0.593750 0.250000
vt 0.593750 0.468750
vt 0.625000 0.468750
vt 0.625000 0.500000
vt 0.593750 0.500000
vt 0.593750 0.531250
vt 0.593750 0.531250
vt 0.000000 0.000000
vt 0.000000 0.000000
vt 0.000000 0.000000
vt 0.000000 0.000000
vt 0.593750 0.218750
vt 0.625000 0.531250
vt 0.593750 0.218750
vt 0.593750 0.250000
vt 0.625000 0.250000
vt 0.625000 0.218750
vt 0.593750 0.468750
vt 0.593750 0.500000
vt 0.625000 0.500000
vt 0.625000 0.468750
vt 0.593750 0.531250
vt 0.593750 0.531250
vt 0.000000 0.000000
vt 0.000000 0.000000
vt 0.593750 0.218750
vt 0.625000 0.531250
vt 0.000000 0.000000
vt 0.000000 0.000000
vt 0.000000 0.000000
vt 0.000000 0.000000
vt 0.000000 0.000000
vt 0.000000 0.000000
vt 0.593750 0.218750
vt 0.625000 0.218750
vt 0.625000 0.250000
vt 0.593750 0.250000
vt 0.593750 0.468750
vt 0.625000 0.468750
vt 0.625000 0.500000
vt 0.593750 0.500000
vt 0.593750 0.531250
vt 0.593750 0.531250
vt 0.593750 0.218750
vt 0.625000 0.531250
vt 0.000000 0.000000
vt 0.000000 0.000000
vt 0.000000 0.000000
vt 0.000000 0.000000
vt 0.593750 0.218750
vt 0.625000 0.218750
vt 0.625000 0.250000
vt 0.593750 0.250000
vt 0.593750 0.468750
vt 0.625000 0.468750
vt 0.625000 0.500000
vt 0.593750 0.500000
vt 0.593750 0.531250
vt 0.593750 0.531250
vt 0.000000 0.000000
vt 0.000000 0.000000
vt 0.593750 0.218750
vt 0.625000 0.531250
vt 0.000000 0.000000
vt 0.000000 0.000000
vt 0.593750 0.218750
vt 0.593750 0.250000
vt 0.625000 0.250000
vt 0.625000 0.218750
vt 0.593750 0.468750
vt 0.593750 0.500000
vt 0.625000 0.500000
vt 0.625000 0.468750
vt 0.593750 0.531250
vt 0.593750 0.531250
vt 0.593750 0.218750
vt 0.625000 0.531250
vn 0.0000 1.0000 0.0000
vn 0.0000 0.0000 1.0000
vn 0.0170 -0.0011 -0.9999
vn 0.9999 -0.0011 -0.0170
vn -1.0000 0.0000 0.0000
vn 0.0011 -0.0170 -0.9999
vn 0.0011 -0.9999 -0.0170
vn 0.0170 -0.9999 -0.0011
vn 0.9999 -0.0170 -0.0011
vn -0.0170 -0.0011 -0.9999
vn -0.9999 -0.0011 -0.0170
vn 1.0000 0.0000 0.0000
vn -0.0011 -0.0170 -0.9999
vn -0.0011 -0.9999 -0.0170
vn -0.0170 -0.9999 -0.0011
vn -0.9999 -0.0170 -0.0011
vn 0.0000 0.0000 -1.0000
vn 0.0170 -0.0011 0.9999
vn 0.9999 -0.0011 0.0170
vn 0.0011 -0.0170 0.9999
vn 0.0011 -0.9999 0.0170
vn 0.0170 -0.9999 0.0011
vn 0.9999 -0.0170 0.0011
vn -0.0170 -0.0011 0.9999
vn -0.9999 -0.0011 0.0170
vn -0.0011 -0.0170 0.9999
vn -0.0011 -0.9999 0.0170
vn -0.0170 -0.9999 0.0011
vn -0.9999 -0.0170 0.0011
vn 0.0000 -1.0000 0.0000
vn 0.0170 0.0011 -0.9999
vn 0.9999 0.0011 -0.0170
vn 0.0011 0.0170 -0.9999
vn 0.0011 0.9999 -0.0170
vn 0.0170 0.9999 -0.0011
vn 0.9999 0.0170 -0.0011
vn -0.0170 0.0011 -0.9999
vn -0.9999 0.0011 -0.0170
vn -0.0011 0.0170 -0.9999
vn -0.0011 0.9999 -0.0170
vn -0.0170 0.9999 -0.0011
vn -0.9999 0.0170 -0.0011
vn 0.0170 0.0011 0.9999
vn 0.9999 0.0011 0.0170
vn 0.0011 0.0170 0.9999
vn 0.0011 0.9999 0.0170
vn 0.0170 0.9999 0.0011
vn 0.9999 0.0170 0.0011
vn -0.0170 0.0011 0.9999
vn -0.9999 0.0011 0.0170
vn -0.0011 0.0170 0.9999
vn -0.0011 0.9999 0.0170
vn -0.0170 0.9999 0.0011
vn -0.9999 0.0170 0.0011
usemtl frame
s off
f 7/1/1 4/2/1 1/3/1 3/4/1
f 6/5/2 3/6/2 1/7/2 2/8/2
f 5/9/3 8/10/3 59/11/3 55/12/3
f 10/13/1 13/14/1 7/1/1 3/4/1
f 50/15/2 53/16/2 6/5/2 2/8/2
f 6/5/4 53/16/4 59/11/4 8/17/4
f 2/8/5 1/7/5 4/18/5 5/9/5
f 55/12/5 50/15/5 2/8/5 5/9/5
f 13/14/6 20/19/6 8/17/6 7/1/6
f 20/19/7 15/20/7 6/5/7 8/17/7
f 27/21/1 22/22/1 4/2/1 7/1/1
f 15/20/2 10/13/2 3/6/2 6/5/2
f 8/10/8 5/9/8 26/23/8 31/24/8
f 26/23/5 5/9/5 4/18/5 22/22/5
f 7/1/9 8/17/9 31/24/9 27/21/9
f 18/25/1 12/26/1 9/27/1 14/28/1
f 17/29/2 11/30/2 9/31/2 12/32/2
f 16/33/10 69/34/10 74/35/10 19/36/10
f 10/13/1 12/26/1 18/25/1 13/14/1
f 62/37/2 11/30/2 17/29/2 66/38/2
f 17/29/11 19/39/11 74/35/11 66/38/11
f 11/30/12 16/33/12 14/40/12 9/31/12
f 69/34/12 16/33/12 11/30/12 62/37/12
f 13/14/13 18/25/13 19/39/13 20/19/13
f 20/19/14 19/39/14 17/29/14 15/20/14
f 42/41/1 18/25/1 14/28/1 35/42/1
f 15/20/2 17/29/2 12/32/2 10/13/2
f 19/36/15 46/43/15 40/44/15 16/33/15
f 40/44/12 35/42/12 14/40/12 16/33/12
f 18/25/16 42/41/16 46/43/16 19/39/16
f 30/45/1 24/46/1 21/47/1 25/48/1
f 29/49/17 23/50/17 21/51/17 24/52/17
f 28/53/18 84/54/18 90/55/18 32/56/18
f 34/57/1 24/46/1 30/45/1 38/58/1
f 78/59/17 23/50/17 29/49/17 82/60/17
f 29/49/19 32/61/19 90/55/19 82/60/19
f 23/50/5 28/53/5 25/62/5 21/51/5
f 84/54/5 28/53/5 23/50/5 78/59/5
f 38/58/20 30/45/20 32/61/20 48/63/20
f 48/63/21 32/61/21 29/49/21 41/64/21
f 27/21/1 30/45/1 25/48/1 22/22/1
f 41/64/17 29/49/17 24/52/17 34/57/17
f 32/56/22 31/24/22 26/23/22 28/53/22
f 26/23/5 22/22/5 25/62/5 28/53/5
f 30/45/23 27/21/23 31/24/23 32/61/23
f 45/65/1 39/66/1 33/67/1 37/68/1
f 44/69/17 37/70/17 33/71/17 36/72/17
f 43/73/24 47/74/24 109/75/24 102/76/24
f 34/57/1 38/58/1 45/65/1 37/68/1
f 94/77/17 99/78/17 44/69/17 36/72/17
f 44/69/25 99/78/25 109/75/25 47/79/25
f 36/72/12 33/71/12 39/80/12 43/73/12
f 102/76/12 94/77/12 36/72/12 43/73/12
f 38/58/26 48/63/26 47/79/26 45/65/26
f 48/63/27 41/64/27 44/69/27 47/79/27
f 42/41/1 35/42/1 39/66/1 45/65/1
f 41/64/17 34/57/17 37/70/17 44/69/17
f 47/74/28 43/73/28 40/44/28 46/43/28
f 40/44/12 43/73/12 39/80/12 35/42/12
f 45/65/29 47/79/29 46/43/29 42/41/29
f 58/81/30 52/82/30 49/83/30 54/84/30
f 57/85/2 51/86/2 49/87/2 52/88/2
f 56/89/31 55/12/31 59/11/31 60/90/31
f 63/91/30 52/82/30 58/81/30 67/92/30
f 50/15/2 51/86/2 57/85/2 53/16/2
f 57/85/32 60/93/32 59/11/32 53/16/32
f 51/86/5 56/89/5 54/94/5 49/87/5
f 55/12/5 56/89/5 51/86/5 50/15/5
f 67/92/33 58/81/33 60/93/33 76/95/33
f 76/95/34 60/93/34 57/85/34 70/96/34
f 86/97/30 58/81/30 54/84/30 79/98/30
f 70/96/2 57/85/2 52/88/2 63/91/2
f 60/90/35 91/99/35 85/100/35 56/89/35
f 85/100/5 79/98/5 54/94/5 56/89/5
f 58/81/36 86/97/36 91/99/36 60/93/36
f 73/101/30 68/102/30 61/103/30 65/104/30
f 72/105/2 65/106/2 61/107/2 64/108/2
f 71/109/37 75/110/37 74/35/37 69/34/37
f 63/91/30 67/92/30 73/101/30 65/104/30
f 62/37/2 66/38/2 72/105/2 64/108/2
f 72/105/38 66/38/38 74/35/38 75/111/38
f 64/108/12 61/107/12 68/112/12 71/109/12
f 69/34/12 62/37/12 64/108/12 71/109/12
f 67/92/39 76/95/39 75/111/39 73/101/39
f 76/95/40 70/96/40 72/105/40 75/111/40
f 105/113/30 96/114/30 68/102/30 73/101/30
f 70/96/2 63/91/2 65/106/2 72/105/2
f 75/110/41 71/109/41 103/115/41 110/116/41
f 103/115/12 71/109/12 68/112/12 96/114/12
f 73/101/42 75/111/42 110/116/42 105/113/42
f 89/117/30 83/118/30 77/119/30 81/120/30
f 88/121/17 81/122/17 77/123/17 80/124/17
f 87/125/43 92/126/43 90/55/43 84/54/43
f 95/127/30 100/128/30 89/117/30 81/120/30
f 78/59/17 82/60/17 88/121/17 80/124/17
f 88/121/44 82/60/44 90/55/44 92/129/44
f 80/124/5 77/123/5 83/130/5 87/125/5
f 84/54/5 78/59/5 80/124/5 87/125/5
f 100/128/45 112/131/45 92/129/45 89/117/45
f 112/131/46 104/132/46 88/121/46 92/129/46
f 86/97/30 79/98/30 83/118/30 89/117/30
f 104/132/17 95/127/17 81/122/17 88/121/17
f 92/126/47 87/125/47 85/100/47 91/99/47
f 85/100/5 87/125/5 83/130/5 79/98/5
f 89/117/48 92/129/48 91/99/48 86/97/48
f 108/133/30 98/134/30 93/135/30 101/136/30
f 107/137/17 97/138/17 93/139/17 98/140/17
f 106/141/49 102/76/49 109/75/49 111/142/49
f 95/127/30 98/134/30 108/133/30 100/128/30
f 94/77/17 97/138/17 107/137/17 99/78/17
f 107/137/50 111/143/50 109/75/50 99/78/50
f 97/138/12 106/141/12 101/144/12 93/139/12
f 102/76/12 106/141/12 97/138/12 94/77/12
f 100/128/51 108/133/51 111/143/51 112/131/51
f 112/131/52 111/143/52 107/137/52 104/132/52
f 105/113/30 108/133/30 101/136/30 96/114/30
f 104/132/17 107/137/17 98/140/17 95/127/17
f 111/142/53 110/116/53 103/115/53 106/141/53
f 103/115/12 96/114/12 101/144/12 106/141/12
f 108/133/54 105/113/54 110/116/54 111/143/54
